<svg width="982" height="322" viewBox="0 0 982 322" fill="none" xmlns="http://www.w3.org/2000/svg">
<mask id="path-1-inside-1_506_14" fill="white">
<path d="M249.984 228.947H232.553V205.705H249.984V199.895H226.742V258H203.5V176.652H273.227V258H249.984V228.947ZM308.229 228.947V258H284.987V176.652H308.229V205.705H331.471V176.652H354.714V258H331.471V228.947H308.229ZM389.716 199.895V258H366.474V176.652H471.064V258H447.822V199.895H430.39V258H407.148V199.895H389.716ZM506.067 234.758H552.551V258H482.825V176.652H552.551V199.895H506.067V234.758ZM511.877 205.705H552.551V228.947H511.877V205.705ZM587.554 234.758H610.796V211.516L599.175 199.895H587.554V234.758ZM564.312 258V176.652H610.796L634.038 199.895V258H564.312Z"/>
</mask>
<path d="M249.984 228.947H232.553V205.705H249.984V199.895H226.742V258H203.5V176.652H273.227V258H249.984V228.947ZM308.229 228.947V258H284.987V176.652H308.229V205.705H331.471V176.652H354.714V258H331.471V228.947H308.229ZM389.716 199.895V258H366.474V176.652H471.064V258H447.822V199.895H430.39V258H407.148V199.895H389.716ZM506.067 234.758H552.551V258H482.825V176.652H552.551V199.895H506.067V234.758ZM511.877 205.705H552.551V228.947H511.877V205.705ZM587.554 234.758H610.796V211.516L599.175 199.895H587.554V234.758ZM564.312 258V176.652H610.796L634.038 199.895V258H564.312Z" fill="black"/>
<path d="M249.984 228.947H253.984V224.947H249.984V228.947ZM232.553 228.947H228.553V232.947H232.553V228.947ZM232.553 205.705V201.705H228.553V205.705H232.553ZM249.984 205.705V209.705H253.984V205.705H249.984ZM249.984 199.895H253.984V195.895H249.984V199.895ZM226.742 199.895V195.895H222.742V199.895H226.742ZM226.742 258V262H230.742V258H226.742ZM203.5 258H199.5V262H203.5V258ZM203.5 176.652V172.652H199.5V176.652H203.5ZM273.227 176.652H277.227V172.652H273.227V176.652ZM273.227 258V262H277.227V258H273.227ZM249.984 258H245.984V262H249.984V258ZM249.984 224.947H232.553V232.947H249.984V224.947ZM236.553 228.947V205.705H228.553V228.947H236.553ZM232.553 209.705H249.984V201.705H232.553V209.705ZM253.984 205.705V199.895H245.984V205.705H253.984ZM249.984 195.895H226.742V203.895H249.984V195.895ZM222.742 199.895V258H230.742V199.895H222.742ZM226.742 254H203.5V262H226.742V254ZM207.5 258V176.652H199.5V258H207.5ZM203.5 180.652H273.227V172.652H203.5V180.652ZM269.227 176.652V258H277.227V176.652H269.227ZM273.227 254H249.984V262H273.227V254ZM253.984 258V228.947H245.984V258H253.984ZM308.229 228.947V224.947H304.229V228.947H308.229ZM308.229 258V262H312.229V258H308.229ZM284.987 258H280.987V262H284.987V258ZM284.987 176.652V172.652H280.987V176.652H284.987ZM308.229 176.652H312.229V172.652H308.229V176.652ZM308.229 205.705H304.229V209.705H308.229V205.705ZM331.471 205.705V209.705H335.471V205.705H331.471ZM331.471 176.652V172.652H327.471V176.652H331.471ZM354.714 176.652H358.714V172.652H354.714V176.652ZM354.714 258V262H358.714V258H354.714ZM331.471 258H327.471V262H331.471V258ZM331.471 228.947H335.471V224.947H331.471V228.947ZM304.229 228.947V258H312.229V228.947H304.229ZM308.229 254H284.987V262H308.229V254ZM288.987 258V176.652H280.987V258H288.987ZM284.987 180.652H308.229V172.652H284.987V180.652ZM304.229 176.652V205.705H312.229V176.652H304.229ZM308.229 209.705H331.471V201.705H308.229V209.705ZM335.471 205.705V176.652H327.471V205.705H335.471ZM331.471 180.652H354.714V172.652H331.471V180.652ZM350.714 176.652V258H358.714V176.652H350.714ZM354.714 254H331.471V262H354.714V254ZM335.471 258V228.947H327.471V258H335.471ZM331.471 224.947H308.229V232.947H331.471V224.947ZM389.716 199.895V195.895H385.716V199.895H389.716ZM389.716 258V262H393.716V258H389.716ZM366.474 258H362.474V262H366.474V258ZM366.474 176.652V172.652H362.474V176.652H366.474ZM471.064 176.652H475.064V172.652H471.064V176.652ZM471.064 258V262H475.064V258H471.064ZM447.822 258H443.822V262H447.822V258ZM447.822 199.895H451.822V195.895H447.822V199.895ZM430.39 199.895V195.895H426.39V199.895H430.39ZM430.39 258V262H434.39V258H430.39ZM407.148 258H403.148V262H407.148V258ZM407.148 199.895H411.148V195.895H407.148V199.895ZM385.716 199.895V258H393.716V199.895H385.716ZM389.716 254H366.474V262H389.716V254ZM370.474 258V176.652H362.474V258H370.474ZM366.474 180.652H471.064V172.652H366.474V180.652ZM467.064 176.652V258H475.064V176.652H467.064ZM471.064 254H447.822V262H471.064V254ZM451.822 258V199.895H443.822V258H451.822ZM447.822 195.895H430.39V203.895H447.822V195.895ZM426.39 199.895V258H434.39V199.895H426.39ZM430.39 254H407.148V262H430.39V254ZM411.148 258V199.895H403.148V258H411.148ZM407.148 195.895H389.716V203.895H407.148V195.895ZM506.067 234.758H502.067V238.758H506.067V234.758ZM552.551 234.758H556.551V230.758H552.551V234.758ZM552.551 258V262H556.551V258H552.551ZM482.825 258H478.825V262H482.825V258ZM482.825 176.652V172.652H478.825V176.652H482.825ZM552.551 176.652H556.551V172.652H552.551V176.652ZM552.551 199.895V203.895H556.551V199.895H552.551ZM506.067 199.895V195.895H502.067V199.895H506.067ZM511.877 205.705V201.705H507.877V205.705H511.877ZM552.551 205.705H556.551V201.705H552.551V205.705ZM552.551 228.947V232.947H556.551V228.947H552.551ZM511.877 228.947H507.877V232.947H511.877V228.947ZM506.067 238.758H552.551V230.758H506.067V238.758ZM548.551 234.758V258H556.551V234.758H548.551ZM552.551 254H482.825V262H552.551V254ZM486.825 258V176.652H478.825V258H486.825ZM482.825 180.652H552.551V172.652H482.825V180.652ZM548.551 176.652V199.895H556.551V176.652H548.551ZM552.551 195.895H506.067V203.895H552.551V195.895ZM502.067 199.895V234.758H510.067V199.895H502.067ZM511.877 209.705H552.551V201.705H511.877V209.705ZM548.551 205.705V228.947H556.551V205.705H548.551ZM552.551 224.947H511.877V232.947H552.551V224.947ZM515.877 228.947V205.705H507.877V228.947H515.877ZM587.554 234.758H583.554V238.758H587.554V234.758ZM610.796 234.758V238.758H614.796V234.758H610.796ZM610.796 211.516H614.796V209.859L613.625 208.687L610.796 211.516ZM599.175 199.895L602.003 197.066L600.832 195.895H599.175V199.895ZM587.554 199.895V195.895H583.554V199.895H587.554ZM564.312 258H560.312V262H564.312V258ZM564.312 176.652V172.652H560.312V176.652H564.312ZM610.796 176.652L613.625 173.824L612.453 172.652H610.796V176.652ZM634.038 199.895H638.038V198.238L636.867 197.066L634.038 199.895ZM634.038 258V262H638.038V258H634.038ZM587.554 238.758H610.796V230.758H587.554V238.758ZM614.796 234.758V211.516H606.796V234.758H614.796ZM613.625 208.687L602.003 197.066L596.347 202.723L607.968 214.344L613.625 208.687ZM599.175 195.895H587.554V203.895H599.175V195.895ZM583.554 199.895V234.758H591.554V199.895H583.554ZM568.312 258V176.652H560.312V258H568.312ZM564.312 180.652H610.796V172.652H564.312V180.652ZM607.968 179.481L631.21 202.723L636.867 197.066L613.625 173.824L607.968 179.481ZM630.038 199.895V258H638.038V199.895H630.038ZM634.038 254H564.312V262H634.038V254Z" fill="#E8EBE8" mask="url(#path-1-inside-1_506_14)"/>
<mask id="path-3-inside-2_506_14" fill="white">
<path d="M232.553 89.7632L249.984 89.7051V83.8945H226.742V142H203.5V60.6523H273.227V112.947H261.605L284.848 142H255.795L232.553 112.947V89.7632ZM331.471 112.947H314.04V89.7051H331.471V83.8945H308.229V142H284.987V60.6523H354.714V142H331.471V112.947ZM389.716 142H366.474V60.6523H436.201V83.8945H389.716V142ZM395.527 89.7051H436.201V112.947H395.527V89.7051ZM517.688 83.8945H471.204V89.7051H517.688V142H447.961V118.758H494.446V112.947H447.961V60.6523H517.688V83.8945ZM575.933 112.947H558.501V89.7051H575.933V83.8945H552.691V142H529.448V60.6523H599.175V142H575.933V112.947ZM634.178 95.5156V142H610.936V60.6523H634.178L657.42 83.8945V60.6523H680.662V142H657.42V118.758L634.178 95.5156Z"/>
</mask>
<path d="M232.553 89.7632L249.984 89.7051V83.8945H226.742V142H203.5V60.6523H273.227V112.947H261.605L284.848 142H255.795L232.553 112.947V89.7632ZM331.471 112.947H314.04V89.7051H331.471V83.8945H308.229V142H284.987V60.6523H354.714V142H331.471V112.947ZM389.716 142H366.474V60.6523H436.201V83.8945H389.716V142ZM395.527 89.7051H436.201V112.947H395.527V89.7051ZM517.688 83.8945H471.204V89.7051H517.688V142H447.961V118.758H494.446V112.947H447.961V60.6523H517.688V83.8945ZM575.933 112.947H558.501V89.7051H575.933V83.8945H552.691V142H529.448V60.6523H599.175V142H575.933V112.947ZM634.178 95.5156V142H610.936V60.6523H634.178L657.42 83.8945V60.6523H680.662V142H657.42V118.758L634.178 95.5156Z" fill="black"/>
<path d="M232.553 89.7632L232.539 85.7632L228.553 85.7765V89.7632H232.553ZM249.984 89.7051L249.998 93.7051L253.984 93.6918V89.7051H249.984ZM249.984 83.8945H253.984V79.8945H249.984V83.8945ZM226.742 83.8945V79.8945H222.742V83.8945H226.742ZM226.742 142V146H230.742V142H226.742ZM203.5 142H199.5V146H203.5V142ZM203.5 60.6523V56.6523H199.5V60.6523H203.5ZM273.227 60.6523H277.227V56.6523H273.227V60.6523ZM273.227 112.947V116.947H277.227V112.947H273.227ZM261.605 112.947V108.947H253.283L258.482 115.446L261.605 112.947ZM284.848 142V146H293.17L287.971 139.501L284.848 142ZM255.795 142L252.671 144.499L253.872 146H255.795V142ZM232.553 112.947H228.553V114.35L229.429 115.446L232.553 112.947ZM232.566 93.7632L249.998 93.7051L249.971 85.7051L232.539 85.7632L232.566 93.7632ZM253.984 89.7051V83.8945H245.984V89.7051H253.984ZM249.984 79.8945H226.742V87.8945H249.984V79.8945ZM222.742 83.8945V142H230.742V83.8945H222.742ZM226.742 138H203.5V146H226.742V138ZM207.5 142V60.6523H199.5V142H207.5ZM203.5 64.6523H273.227V56.6523H203.5V64.6523ZM269.227 60.6523V112.947H277.227V60.6523H269.227ZM273.227 108.947H261.605V116.947H273.227V108.947ZM258.482 115.446L281.724 144.499L287.971 139.501L264.729 110.448L258.482 115.446ZM284.848 138H255.795V146H284.848V138ZM258.918 139.501L235.676 110.448L229.429 115.446L252.671 144.499L258.918 139.501ZM236.553 112.947V89.7632H228.553V112.947H236.553ZM331.471 112.947H335.471V108.947H331.471V112.947ZM314.04 112.947H310.04V116.947H314.04V112.947ZM314.04 89.7051V85.7051H310.04V89.7051H314.04ZM331.471 89.7051V93.7051H335.471V89.7051H331.471ZM331.471 83.8945H335.471V79.8945H331.471V83.8945ZM308.229 83.8945V79.8945H304.229V83.8945H308.229ZM308.229 142V146H312.229V142H308.229ZM284.987 142H280.987V146H284.987V142ZM284.987 60.6523V56.6523H280.987V60.6523H284.987ZM354.714 60.6523H358.714V56.6523H354.714V60.6523ZM354.714 142V146H358.714V142H354.714ZM331.471 142H327.471V146H331.471V142ZM331.471 108.947H314.04V116.947H331.471V108.947ZM318.04 112.947V89.7051H310.04V112.947H318.04ZM314.04 93.7051H331.471V85.7051H314.04V93.7051ZM335.471 89.7051V83.8945H327.471V89.7051H335.471ZM331.471 79.8945H308.229V87.8945H331.471V79.8945ZM304.229 83.8945V142H312.229V83.8945H304.229ZM308.229 138H284.987V146H308.229V138ZM288.987 142V60.6523H280.987V142H288.987ZM284.987 64.6523H354.714V56.6523H284.987V64.6523ZM350.714 60.6523V142H358.714V60.6523H350.714ZM354.714 138H331.471V146H354.714V138ZM335.471 142V112.947H327.471V142H335.471ZM389.716 142V146H393.716V142H389.716ZM366.474 142H362.474V146H366.474V142ZM366.474 60.6523V56.6523H362.474V60.6523H366.474ZM436.201 60.6523H440.201V56.6523H436.201V60.6523ZM436.201 83.8945V87.8945H440.201V83.8945H436.201ZM389.716 83.8945V79.8945H385.716V83.8945H389.716ZM395.527 89.7051V85.7051H391.527V89.7051H395.527ZM436.201 89.7051H440.201V85.7051H436.201V89.7051ZM436.201 112.947V116.947H440.201V112.947H436.201ZM395.527 112.947H391.527V116.947H395.527V112.947ZM389.716 138H366.474V146H389.716V138ZM370.474 142V60.6523H362.474V142H370.474ZM366.474 64.6523H436.201V56.6523H366.474V64.6523ZM432.201 60.6523V83.8945H440.201V60.6523H432.201ZM436.201 79.8945H389.716V87.8945H436.201V79.8945ZM385.716 83.8945V142H393.716V83.8945H385.716ZM395.527 93.7051H436.201V85.7051H395.527V93.7051ZM432.201 89.7051V112.947H440.201V89.7051H432.201ZM436.201 108.947H395.527V116.947H436.201V108.947ZM399.527 112.947V89.7051H391.527V112.947H399.527ZM517.688 83.8945V87.8945H521.688V83.8945H517.688ZM471.204 83.8945V79.8945H467.204V83.8945H471.204ZM471.204 89.7051H467.204V93.7051H471.204V89.7051ZM517.688 89.7051H521.688V85.7051H517.688V89.7051ZM517.688 142V146H521.688V142H517.688ZM447.961 142H443.961V146H447.961V142ZM447.961 118.758V114.758H443.961V118.758H447.961ZM494.446 118.758V122.758H498.446V118.758H494.446ZM494.446 112.947H498.446V108.947H494.446V112.947ZM447.961 112.947H443.961V116.947H447.961V112.947ZM447.961 60.6523V56.6523H443.961V60.6523H447.961ZM517.688 60.6523H521.688V56.6523H517.688V60.6523ZM517.688 79.8945H471.204V87.8945H517.688V79.8945ZM467.204 83.8945V89.7051H475.204V83.8945H467.204ZM471.204 93.7051H517.688V85.7051H471.204V93.7051ZM513.688 89.7051V142H521.688V89.7051H513.688ZM517.688 138H447.961V146H517.688V138ZM451.961 142V118.758H443.961V142H451.961ZM447.961 122.758H494.446V114.758H447.961V122.758ZM498.446 118.758V112.947H490.446V118.758H498.446ZM494.446 108.947H447.961V116.947H494.446V108.947ZM451.961 112.947V60.6523H443.961V112.947H451.961ZM447.961 64.6523H517.688V56.6523H447.961V64.6523ZM513.688 60.6523V83.8945H521.688V60.6523H513.688ZM575.933 112.947H579.933V108.947H575.933V112.947ZM558.501 112.947H554.501V116.947H558.501V112.947ZM558.501 89.7051V85.7051H554.501V89.7051H558.501ZM575.933 89.7051V93.7051H579.933V89.7051H575.933ZM575.933 83.8945H579.933V79.8945H575.933V83.8945ZM552.691 83.8945V79.8945H548.691V83.8945H552.691ZM552.691 142V146H556.691V142H552.691ZM529.448 142H525.448V146H529.448V142ZM529.448 60.6523V56.6523H525.448V60.6523H529.448ZM599.175 60.6523H603.175V56.6523H599.175V60.6523ZM599.175 142V146H603.175V142H599.175ZM575.933 142H571.933V146H575.933V142ZM575.933 108.947H558.501V116.947H575.933V108.947ZM562.501 112.947V89.7051H554.501V112.947H562.501ZM558.501 93.7051H575.933V85.7051H558.501V93.7051ZM579.933 89.7051V83.8945H571.933V89.7051H579.933ZM575.933 79.8945H552.691V87.8945H575.933V79.8945ZM548.691 83.8945V142H556.691V83.8945H548.691ZM552.691 138H529.448V146H552.691V138ZM533.448 142V60.6523H525.448V142H533.448ZM529.448 64.6523H599.175V56.6523H529.448V64.6523ZM595.175 60.6523V142H603.175V60.6523H595.175ZM599.175 138H575.933V146H599.175V138ZM579.933 142V112.947H571.933V142H579.933ZM634.178 95.5156L637.006 92.6872L630.178 85.8588V95.5156H634.178ZM634.178 142V146H638.178V142H634.178ZM610.936 142H606.936V146H610.936V142ZM610.936 60.6523V56.6523H606.936V60.6523H610.936ZM634.178 60.6523L637.006 57.8239L635.835 56.6523H634.178V60.6523ZM657.42 83.8945L654.591 86.723L661.42 93.5514V83.8945H657.42ZM657.42 60.6523V56.6523H653.42V60.6523H657.42ZM680.662 60.6523H684.662V56.6523H680.662V60.6523ZM680.662 142V146H684.662V142H680.662ZM657.42 142H653.42V146H657.42V142ZM657.42 118.758H661.42V117.101L660.248 115.929L657.42 118.758ZM630.178 95.5156V142H638.178V95.5156H630.178ZM634.178 138H610.936V146H634.178V138ZM614.936 142V60.6523H606.936V142H614.936ZM610.936 64.6523H634.178V56.6523H610.936V64.6523ZM631.349 63.4808L654.591 86.723L660.248 81.0661L637.006 57.8239L631.349 63.4808ZM661.42 83.8945V60.6523H653.42V83.8945H661.42ZM657.42 64.6523H680.662V56.6523H657.42V64.6523ZM676.662 60.6523V142H684.662V60.6523H676.662ZM680.662 138H657.42V146H680.662V138ZM661.42 142V118.758H653.42V142H661.42ZM660.248 115.929L637.006 92.6872L631.349 98.3441L654.591 121.586L660.248 115.929Z" fill="#E8EBE8" mask="url(#path-3-inside-2_506_14)"/>
<path d="M137.5 34C137.5 42.8366 144.663 50 153.5 50C162.337 50 169.5 42.8366 169.5 34C169.5 25.1634 162.337 18 153.5 18C144.663 18 137.5 25.1634 137.5 34ZM25 162.5L22.8787 160.379L20.7574 162.5L22.8787 164.621L25 162.5ZM151.379 31.8787L22.8787 160.379L27.1213 164.621L155.621 36.1213L151.379 31.8787ZM22.8787 164.621L151.379 293.121L155.621 288.879L27.1213 160.379L22.8787 164.621Z" fill="#A5A5A5"/>
<path d="M845 34C845 42.8366 837.837 50 829 50C820.163 50 813 42.8366 813 34C813 25.1634 820.163 18 829 18C837.837 18 845 25.1634 845 34ZM957.5 162.5L959.621 160.379L961.743 162.5L959.621 164.621L957.5 162.5ZM831.121 31.8787L959.621 160.379L955.379 164.621L826.879 36.1213L831.121 31.8787ZM959.621 164.621L831.121 293.121L826.879 288.879L955.379 160.379L959.621 164.621Z" fill="#A5A5A5"/>
<path d="M673 291C673 299.837 680.163 307 689 307C697.837 307 705 299.837 705 291C705 282.163 697.837 275 689 275C680.163 275 673 282.163 673 291ZM780.183 32.9695L686.183 289.969L691.817 292.031L785.817 35.0305L780.183 32.9695Z" fill="#A5A5A5"/>
</svg>
